<svg width="41px" height="40px" viewBox="0 0 41 40" version="1.1" xmlns="http://www.w3.org/2000/svg">
	<path
		d="M39.3600016,0 L1.64000007,0 C0.734310029,0 0,0.731020408 0,1.63265306 L0,30.1959184 C0,31.097551 0.734310029,31.8285714 1.64000007,31.8285714 L15.1700006,31.8285714 C15.1700006,31.8285714 14.7319566,33.4132245 13.9400006,35.9183673 C13.4661225,37.4182041 11.9891385,37.5444898 11.5873385,37.5510204 L9.84000039,37.5510204 C9.38678637,37.5510204 9.02000036,37.9165714 9.02000036,38.3673469 L9.02000036,40 L31.9800013,40 L31.9800013,38.3673469 C31.9800013,37.9165714 31.6132153,37.5510204 31.1600012,37.5510204 L29.4126632,37.5510204 C29.0108632,37.5444898 27.5338791,37.4182041 27.0600011,35.9183673 C26.7417591,34.9118367 26.4837871,34.0648163 26.285347,33.4001633 C26.285347,33.4001633 22.6753789,32.8779592 18.9240428,32.1493061 C18.6613967,32.0982857 18.6934587,31.9069388 18.7237167,31.8368163 L39.3600016,31.8368163 C40.2656916,31.8368163 41,31.1057959 41,30.2041633 L41,1.63265306 C41,0.731020408 40.2656916,0 39.3600016,0 Z M36.9000015,26.122449 L4.10000016,26.122449 L4.10000016,4.08163265 L36.9000015,4.08163265 L36.9000015,26.122449 Z"
		fill-rule="nonzero"></path>
</svg>