<?xml version="1.0" encoding="UTF-8"?>
<svg width="36px" height="40px" viewBox="0 0 36 40" version="1.1" xmlns="http://www.w3.org/2000/svg">
    <path d="M23.6363636,3.55271368e-15 C23.8371636,3.55271368e-15 24,0.154344828 24,0.344827586 L24,0.344827586 L24,10.3448276 L15.2727273,10.3448276 C14.8710545,10.3448276 14.5454545,10.6535862 14.5454545,11.0344828 L14.5454545,11.0344828 L14.5454545,40 L0,40 L0,19.6551724 C0,19.4646897 0.162836364,19.3103448 0.363636364,19.3103448 L0.363636364,19.3103448 L5.09090909,19.3103448 L5.09090909,0.344827586 C5.09090909,0.154344828 5.25374545,3.55271368e-15 5.45454545,3.55271368e-15 L5.45454545,3.55271368e-15 Z M35.6428571,11.7073171 C35.8400714,11.7073171 36,11.8617537 36,12.0523498 L36,12.0523498 L36,40 L27.4285714,40 L27.4285714,35.8596074 L24.5714286,35.8596074 L24.5714286,40 L16,40 L16,12.0523498 C16,11.8617537 16.1599286,11.7073171 16.3571429,11.7073171 L16.3571429,11.7073171 Z M22.4285714,30.3390839 L19.5714286,30.3390839 L19.5714286,33.0993456 L22.4285714,33.0993456 L22.4285714,30.3390839 Z M27.4285714,30.3390839 L24.5714286,30.3390839 L24.5714286,33.0993456 L27.4285714,33.0993456 L27.4285714,30.3390839 Z M32.4285714,30.3390839 L29.5714286,30.3390839 L29.5714286,33.0993456 L32.4285714,33.0993456 L32.4285714,30.3390839 Z M22.4285714,25.5086258 L19.5714286,25.5086258 L19.5714286,28.2688876 L22.4285714,28.2688876 L22.4285714,25.5086258 Z M27.4285714,25.5086258 L24.5714286,25.5086258 L24.5714286,28.2688876 L27.4285714,28.2688876 L27.4285714,25.5086258 Z M32.4285714,25.5086258 L29.5714286,25.5086258 L29.5714286,28.2688876 L32.4285714,28.2688876 L32.4285714,25.5086258 Z M22.4285714,20.6781678 L19.5714286,20.6781678 L19.5714286,23.4384295 L22.4285714,23.4384295 L22.4285714,20.6781678 Z M27.4285714,20.6781678 L24.5714286,20.6781678 L24.5714286,23.4384295 L27.4285714,23.4384295 L27.4285714,20.6781678 Z M32.4285714,20.6781678 L29.5714286,20.6781678 L29.5714286,23.4384295 L32.4285714,23.4384295 L32.4285714,20.6781678 Z M22.4285714,15.8477097 L19.5714286,15.8477097 L19.5714286,18.6079714 L22.4285714,18.6079714 L22.4285714,15.8477097 Z M27.4285714,15.8477097 L24.5714286,15.8477097 L24.5714286,18.6079714 L27.4285714,18.6079714 L27.4285714,15.8477097 Z M32.4285714,15.8477097 L29.5714286,15.8477097 L29.5714286,18.6079714 L32.4285714,18.6079714 L32.4285714,15.8477097 Z" id="buildings" class="tab__icon__image" fill-rule="nonzero"></path>
</svg>
