<svg xmlns="http://www.w3.org/2000/svg" width="448" height="512" viewBox="0 0 448 512">
  <g>
    <path fill="currentColor" d="M430.08,85.76h-62L352.8,137.28c-1,2.94-3.36,2-3.36,2V85.76h0c0-11.2,0-30-1.68-37S345.66,32,337,32H311.5c-8.68,0-10.64,11.06-11.62,16.94s-2.66,25.06-3.5,36.82H153l-15.26,51.52c-1,2.94-3.36,2-3.36,2V85.76h0c0-11.2,0-30-1.68-37S130.62,32,121.94,32H96.46c-8.68,0-10.64,11.06-11.62,16.94S82.18,74,81.34,85.76H17.92A17.92,17.92,0,0,0,0,103.68v358.4A17.92,17.92,0,0,0,17.92,480H430.08A17.92,17.92,0,0,0,448,462.08h0V103.68a17.92,17.92,0,0,0-17.92-17.92Zm-26.88,350H44.8V202.24H403.2Z"/>
    <rect fill="currentColor" x="80.64" y="247.04" width="71.68" height="53.76"/>
    <rect fill="currentColor" x="188.16" y="247.04" width="71.68" height="53.76"/>
    <rect fill="currentColor" x="295.68" y="247.04" width="71.68" height="53.76"/>
    <rect fill="currentColor" x="80.64" y="336.64" width="71.68" height="53.76"/>
    <rect fill="currentColor" x="188.16" y="336.64" width="71.68" height="53.76"/>
    <rect fill="currentColor" x="295.68" y="336.64" width="71.68" height="53.76"/>
  </g>
</svg>
