<svg xmlns="http://www.w3.org/2000/svg" width="512" height="512" viewBox="0 0 512 512">
  <g>
    <path d="M437.14,140.81c-16-22.39-52-12.8-52-12.8l-77.59,52V12.84A11.84,11.84,0,0,0,296.78,0a13.35,13.35,0,0,0-2,0H217.19a11.84,11.84,0,0,0-12.79,10.8,11.13,11.13,0,0,0,0,2V180l-77.59-52s-36-9.59-52,12.8a43.22,43.22,0,0,0,0,52c2.4,1.6,90.38,112,142.37,167.16a78.78,78.78,0,0,0,38.39,25.6A78.76,78.76,0,0,0,294,360C346,304,433.14,194.4,436.34,192.8A41.59,41.59,0,0,0,437.14,140.81Z" fill="currentColor"/>
    <path d="M482.29,486.34v-100H419.1V424A12.48,12.48,0,0,1,407,436.75H104.77A12.48,12.48,0,0,1,92,424.6c0-.22,0-.43,0-.65V386.36H29.59v100a23.83,23.83,0,0,0,21.94,25.59,24.84,24.84,0,0,0,3.66,0H458.3a22.71,22.71,0,0,0,24.13-21.2A22.19,22.19,0,0,0,482.29,486.34Z" fill="currentColor"/>
  </g>
</svg>
