<svg xmlns="http://www.w3.org/2000/svg" width="448" height="512" viewBox="0 0 448 512">
  <path d="M403.64,77.14c-5.92-7.1-15.39-11.85-24.86-10.66H107.61c-9.52,0-19,3.53-24.91,10.66-8.29,5.93-13,15.4-11.86,24.88v34.34c0,9.47,4.75,17.78,11.86,24.87a41.05,41.05,0,0,0,24.87,11.85l127.9-1.18L46,363.79c-7.11,5.93-10.67,15.4-10.67,24.87S38.88,407.61,46,413.54L67.3,433.67a33.61,33.61,0,0,0,26.06,11.85c9.47,1.18,18.94-3.55,24.86-10.66L310.12,243l1.18,129.08c0,9.48,3.55,19,10.66,24.88s15.4,10.64,24.84,10.64h29.64c9.47,0,18.95-3.55,24.87-10.66C408.42,391,412,381.52,412,372V102A24.52,24.52,0,0,0,403.64,77.14Z" fill="currentColor"/>
</svg>
