<svg width="78" height="62" xmlns="http://www.w3.org/2000/svg">
	<g fill-rule="nonzero">
		<path
			d="M51.312 26.672c-1.921-2.036-6.508-3.122-8.054-3.44a.62.62 0 0 1-.488-.515 90.536 90.536 0 0 0-.196-1.264c1.44-1.497 2.52-3.314 2.87-5.768 1.25-.38 1.5-1.923 1.5-2.885 0-.961-.17-1.481-.52-1.642-.33-.152-.636-.018-.817.091.195-1.955.483-6.076-.367-7.6-.908-1.63-2.01-2.282-4.114-1.749-1.38-.736-2.32-1.665-4.736-1.002-1.68.46-3.518 1.296-4.487 2.55-1.07 1.386-.833 5.745-.654 7.784-.185-.106-.474-.217-.785-.074-.35.16-.521.68-.521 1.642 0 .962.25 2.504 1.5 2.885.313 2.574 1.403 4.31 2.842 5.763-.072.436-.15.909-.209 1.282a.609.609 0 0 1-.486.502c-1.542.317-6.134 1.402-8.057 3.44-1.762 1.868-1.881 9.264-1.881 11.907 4.404-.94 9.431-1.475 14.772-1.475 5.35 0 10.36.537 14.77 1.48.005-2.68-.12-10.044-1.882-11.912ZM73.767 43.05c-1.287-.858-3.003-.693-4.523-.498.204-3.108 4.548-6.427 3.466-14.85-.451-3.516-1.843-5.319-5.129-4.908-2.237-1.55-4.517-1.643-6.673-1.18-2.067.442-4.62 1.724-3.283 4.227-.617 1.985-.647 2.509-.635 3.34.042 2.863-1.074 2.815-1.074 5.534 0 1.435.789 6.413 1.611 6.966 1.014.68 4.594.92 5.81.943.093.118.054.31-.273.465-1.111.522-3.464.692-4.709.724-1.65.859-6.153 3.373-7.611 5.932-.943 1.655-1.834 7.54-2.23 10.961 7.134-.584 20.171-1.409 28.048-9.024-.223-1.14-.316-6.98-2.795-8.632Z" />
		<path
			d="m18.33 43.836-.005-.004c-.723-.352-1.05-.76-1.178-1.553l-.186-1.16c.478-.1 1.138-.288 1.635-.63.865-.594 2.631-5.498 2.426-7.295-.203-1.773-.513-1.848-.787-3.39-.287-1.621 1.273-3.218.551-5.592-.649-2.137-3.205-4.29-6.283-3.697-2.332.448-2.802.884-4.343 1.723 0 0-3.222-.55-4.731 1.244-2.257 2.681-1.082 6.54-1.626 10.413-.487 3.471-2.32 4.964-2.32 4.964 2.37 2.009 5.506 3.197 10.106 3.699.123.107.012.357-.332.48-2.49.893-4.897.049-7.739 2C1.926 46.13.771 48.67.328 51.738c7.527 7.404 20.91 8.388 28.043 8.97-.332-3.322-1.105-8.943-2.267-10.964-1.922-3.343-5.965-5.21-7.773-5.91Z" />
	</g>
</svg>