<?xml version="1.0" encoding="UTF-8"?>
<svg width="78px" height="62px" viewBox="0 0 78 62" version="1.1" xmlns="http://www.w3.org/2000/svg">
    <g id="designs-v2" stroke="none" stroke-width="1" fill="none" fill-rule="evenodd">
        <g id="start2" transform="translate(-790.000000, -985.000000)" fill="#777C00" fill-rule="nonzero">
            <g id="0017-bespreking" transform="translate(790.000000, 985.000000)">
                <g id="Group" transform="translate(0.232000, 0.392000)">
                    <path d="M51.0803188,26.2804066 C49.1587685,24.2436643 44.5716632,23.1581491 43.0264888,22.8407859 C42.771588,22.7884259 42.5761929,22.5821892 42.5378777,22.324578 C42.4646969,21.8310388 42.3955817,21.3896132 42.3418665,21.060546 C43.7814584,19.5637893 44.8619223,17.7474518 45.2123031,15.2931848 C46.4625366,14.9123736 46.7126326,13.3701561 46.7126326,12.4084569 C46.7126326,11.446881 46.5412614,10.9267306 46.1918663,10.765585 C45.8627991,10.6142954 45.5557847,10.747721 45.3752967,10.8574922 C45.5704455,8.90230831 45.8575015,4.78114534 45.0084071,3.25654542 C44.1004232,1.62636311 42.9974136,0.975374346 40.893897,1.50821432 C39.5143034,0.772463958 38.5749035,-0.156833591 36.1577196,0.505859172 C34.4781341,0.966011147 32.6397438,1.8017999 31.6712687,3.05597583 C30.6005375,4.44234536 30.8380671,8.80054512 31.0168303,10.8398746 C30.8321535,10.7344154 30.5428799,10.6225498 30.2317999,10.765585 C29.8822816,10.9267306 29.7110336,11.446881 29.7110336,12.4084569 C29.7110336,13.3701561 29.9611296,14.9123736 31.2112399,15.2931848 C31.5241679,17.8668326 32.6143646,19.6034597 34.0526013,21.0563572 C33.9805293,21.4916228 33.9029133,21.9649572 33.8442701,22.3380068 C33.8042301,22.5929076 33.6110526,22.7883027 33.3583694,22.8401699 C31.8162751,23.1566707 27.2242417,24.2423091 25.3014594,26.2804066 C23.5390835,28.1484881 23.4197027,35.54443 23.4197027,38.1874395 C27.8237329,37.247054 32.8510318,36.712366 38.1919979,36.712366 C43.5419576,36.712366 48.5526245,37.2486556 52.9621101,38.1919979 C52.9673731,35.5114124 52.8426947,28.1484881 51.0803188,26.2804066 Z" id="Path"></path>
                    <path d="M73.534996,42.6579977 C72.2476792,41.7996633 70.5319961,41.9649977 69.0117082,42.1603929 C69.2162202,39.0520571 73.5595128,35.7332956 72.4781864,27.3096193 C72.0269048,23.7941075 70.6346217,21.9911988 67.3493707,22.4018244 C65.1118124,20.8528309 62.8319965,20.7591989 60.6759967,21.2211988 C58.6085776,21.664226 56.0559969,22.9459987 57.3930864,25.4488066 C56.7759777,27.4342977 56.7464097,27.9577745 56.7583601,28.7886352 C56.7997553,31.6519263 55.6844257,31.6035087 55.6844257,34.3231485 C55.6844257,35.757566 56.4725361,40.7359546 57.2953889,41.2888761 C58.3089552,41.9699257 61.8887774,42.2080713 63.1046381,42.2320953 C63.1977773,42.3499977 63.1592157,42.5425593 62.8319965,42.6965593 C61.7206094,43.21942 59.3683519,43.389436 58.1232928,43.421468 C56.4738913,44.2800488 51.9700691,46.7943142 50.5119972,49.3534245 C49.5690245,51.0084932 48.6781653,56.8932641 48.2815845,60.3140351 C55.4162194,59.7295743 68.4529962,58.9049968 76.3301574,51.2897588 C76.1071654,50.1504052 76.0142726,44.3108488 73.534996,42.6579977 Z" id="Path"></path>
                    <path d="M18.0989414,43.4438904 L18.0926582,43.4398248 C17.3702134,43.088212 17.0421319,42.6806665 16.9152359,41.8873817 L16.7294503,40.7262218 C17.2068503,40.6264298 17.867079,40.4394122 18.3640678,40.0977786 C19.2294245,39.5028458 20.9953732,34.5986237 20.7899989,32.8019982 C20.5874581,31.0293967 20.2766245,30.9539983 20.0031205,29.4122736 C19.7155717,27.7909617 21.2757764,26.1941666 20.5543173,23.8196099 C19.9054229,21.6834452 17.3485302,19.5302789 14.2706248,20.1226245 C11.9386953,20.5714421 11.4688106,21.0074468 9.92757865,21.8456996 C9.92757865,21.8456996 6.70565243,21.2962276 5.19669891,23.0895267 C2.94004464,25.771221 4.11487977,29.6295984 3.5711982,33.5027598 C3.08394223,36.974166 1.25097273,38.4668571 1.25097273,38.4668571 C3.620355,40.4757562 6.75727323,41.6640201 11.3573146,42.1655673 C11.4803914,42.2733673 11.3691418,42.5234633 11.0252906,42.6466633 C8.53529553,43.5388776 6.12833726,42.6949577 3.28623662,44.6453367 C1.69399991,45.7379975 0.53899997,48.2789973 0.0954799948,51.3474164 C7.62299958,58.7509968 21.005722,59.7351183 28.1391249,60.3172383 C27.8073473,56.9947809 27.0338977,51.3741508 25.8719986,49.3534245 C23.9495859,46.0098999 19.9070245,44.1420648 18.0989414,43.4438904 Z" id="Path"></path>
                </g>
            </g>
        </g>
    </g>
</svg>
