<svg xmlns="http://www.w3.org/2000/svg" width="512" height="512" viewBox="0 0 512 512">
  <path d="M370.31,326.29c-20.46,20.46-26.38,49.88-42.66,66.15-15.93,15.93-78.82-34.18-126.6-81.49-47.31-47.78-97.42-110.67-81.49-126.6,16.27-16.28,45.57-22.09,66.15-42.66S118.63,24.5,104.91,10.79s-33.48-15.23-49.29.58c-90.68,90.67-71.73,215.3,66,361.19l-.35.24c3,3,18.14,17.55,18.14,17.55,145.89,137.76,270.52,156.71,361.19,66,15.81-15.81,14.3-35.69.58-49.29S390.89,305.72,370.31,326.29Z" fill="currentColor"/>
</svg>
