<?xml version="1.0" encoding="UTF-8"?>
<svg viewBox="0 0 77 73" version="1.1" xmlns="http://www.w3.org/2000/svg">
	<g id="start2" transform="translate(-434.000000, -974.000000)"
		fill-rule="nonzero">
		<g id="4027-school" transform="translate(434.000000, 974.000000)">
			<g id="Group" transform="translate(0.096000, 0.112001)">
				<path
					d="M74.9015888,23.6045259 L59.1102499,1.23279517 C58.5642499,0.45995039 57.6769636,0 56.7314372,0 L18.9805612,0 C18.0350348,0 17.1477484,0.45995039 16.6017484,1.23279517 L0.810409582,23.6045259 C0.46999679,24.0866075 0.814777582,24.7519995 1.40474877,24.7519995 L11.7084237,24.7519995 L34.9439992,5.82399987 C36.634852,4.4148831 38.9832344,4.4619119 40.7679991,5.82399987 L64.0028466,24.7519995 L74.3072496,24.7519995 C74.8972208,24.7519995 75.2420016,24.0866075 74.9015888,23.6045259 Z"
					id="Path"></path>
				<path
					d="M37.8559992,9.72564299 L13.8768445,29.1199994 L5.82399987,29.1199994 L5.82399987,71.3439985 L69.8879985,71.3439985 L69.8879985,29.1199994 L61.8351539,29.1199994 L37.8559992,9.72564299 Z M27.6639994,62.6079986 L16.0159997,62.6079986 L16.0159997,55.3279988 L27.6639994,55.3279988 L27.6639994,62.6079986 Z M27.6639994,50.9599989 L16.0159997,50.9599989 L16.0159997,37.8559992 L27.6639994,37.8559992 L27.6639994,50.9599989 Z M43.6799991,62.6079986 L32.0319993,62.6079986 L32.0319993,55.3279988 L43.6799991,55.3279988 L43.6799991,62.6079986 Z M43.6799991,50.9599989 L32.0319993,50.9599989 L32.0319993,37.8559992 L43.6799991,37.8559992 L43.6799991,50.9599989 Z M37.8559992,30.8671993 C34.4788073,30.8671993 31.7407993,28.1290458 31.7407993,24.7519995 C31.7407993,21.3748075 34.4788073,18.6367996 37.8559992,18.6367996 C41.2331911,18.6367996 43.971199,21.3748075 43.971199,24.7519995 C43.971199,28.1290458 41.2331911,30.8671993 37.8559992,30.8671993 Z M59.6959987,62.6079986 L48.047999,62.6079986 L48.047999,55.3279988 L59.6959987,55.3279988 L59.6959987,62.6079986 Z M59.6959987,50.9599989 L48.047999,50.9599989 L48.047999,37.8559992 L59.6959987,37.8559992 L59.6959987,50.9599989 Z"
					id="Shape"></path>
			</g>
		</g>
	</g>
</svg>