<svg viewBox="0 0 77 73" xmlns="http://www.w3.org/2000/svg">
	<path
		d="M74.998 23.717 59.206 1.345A2.914 2.914 0 0 0 56.827.112h-37.75c-.946 0-1.833.46-2.38 1.233L.908 23.717a.728.728 0 0 0 .594 1.147h10.303L35.04 5.936c1.69-1.41 4.04-1.362 5.824 0l23.235 18.928h10.304c.59 0 .935-.665.595-1.147Z" />
	<path
		d="m37.952 9.838-23.98 19.394H5.92v42.224h64.064V29.232h-8.053L37.952 9.838ZM27.76 62.72H16.112v-7.28H27.76v7.28Zm0-11.648H16.112V37.968H27.76v13.104ZM43.776 62.72H32.128v-7.28h11.648v7.28Zm0-11.648H32.128V37.968h11.648v13.104Zm-5.824-20.093a6.115 6.115 0 1 1 0-12.23 6.115 6.115 0 0 1 0 12.23Zm21.84 31.741H48.144v-7.28h11.648v7.28Zm0-11.648H48.144V37.968h11.648v13.104Z" />
</svg>