<svg xmlns="http://www.w3.org/2000/svg" width="512" height="512" viewBox="0 0 512 512">
  <path d="M495.37,411,366.25,286.21A183.57,183.57,0,0,0,389.42,197C387.76,91.26,300.74,6.81,195,8.32,89.06,6.54,1.78,90.94,0,196.83V197C1.66,302.93,88.85,387.43,194.74,385.76H195a197.77,197.77,0,0,0,90.92-22.05L415.47,489a53.06,53.06,0,0,0,73.35,0l7.19-6.87a47.93,47.93,0,0,0,3.79-67.69c-.45-.51-.92-1-1.4-1.5A6.9,6.9,0,0,0,495.37,411ZM76.7,197A116.18,116.18,0,0,1,194.6,82.62h.19A116.49,116.49,0,0,1,312.88,197,116.18,116.18,0,0,1,194.82,311.3h0A116,116,0,0,1,76.55,197.56c0-.12,0-.24,0-.36Z" fill="currentColor"/>
</svg>
