<?xml version="1.0" encoding="UTF-8"?>
<svg width="36px" height="40px" viewBox="0 0 36 40" version="1.1" xmlns="http://www.w3.org/2000/svg">
    <path d="M32.5359328,18.0797391 C33.3699736,16.1711304 33.726773,14.7491304 33.4263337,13.2289565 C33.090392,11.5293043 30.2330678,10.14 26.0133379,9.36513043 C24.7138603,9.12652174 23.7156207,9.19765217 22.9578214,8.15556522 C22.670518,7.7606087 22.5088044,7.26252174 22.4531544,6.69382609 C23.7452653,6.17382609 24.6567014,4.93165217 24.6567014,3.47826087 C24.6567014,1.55730435 23.0671689,0 21.1064585,0 C20.4308473,0 19.8059158,0.195043478 19.2683203,0.516 C19.761449,2.89417391 19.1200089,3.56104348 19.1200089,3.56104348 C18.7948954,3.93269565 18.5022666,3.73930435 18.42354,3.67495652 C18.4273565,3.60852174 18.4437764,3.54565217 18.4437764,3.47826087 C18.4437764,1.55730435 16.8542439,0 14.8935335,0 C12.9328232,0 11.3432907,1.55730435 11.3432907,3.47826087 C11.3432907,4.93165217 12.2547268,6.17382609 13.5468377,6.69382609 C13.4911876,7.26252174 13.3294741,7.7606087 13.0421706,8.15556522 C12.2842826,9.19773913 11.286398,9.12643478 9.98638787,9.36521739 C5.76692424,10.1401739 2.90960004,11.5293043 2.57365831,13.2289565 C2.3724483,14.2472174 2.4718551,15.2247826 2.80628798,16.3306957 C5.8561241,14.816087 11.4470465,13.8695652 18.0001735,13.8695652 C18.080054,13.9986087 17.9748781,14.2633043 17.5059797,14.3453913 C17.0789743,14.420087 7.50112912,15.4224348 3.03004203,18.9990435 C1.16208176,22.9934783 -0.0391429111,27.513913 0.000974833081,31.0113043 C0.059465084,36.1175652 3.71674776,40 17.9998185,40 C32.2827118,40 35.940527,36.1175652 35.9990172,31.0112174 C36.0422414,27.2446957 34.6561379,22.2832174 32.5359328,18.0797391 Z M16.7051337,8.72226087 C16.9653665,8.02504348 17.1381746,7.17495652 17.1238849,6.16417391 C17.4816606,5.8786087 17.7778396,5.52956522 17.999996,5.12956522 C18.2221525,5.52956522 18.5183315,5.87852174 18.8761072,6.16417391 C18.8618175,7.17495652 19.0346256,8.02504348 19.2948584,8.72226087 C17.8373949,8.68643478 18.1623309,8.68643478 16.7051337,8.72226087 Z M21.9940192,33.7303478 C20.7422036,34.0205217 20.1508219,34.0873043 18.9448044,34.0873043 C15.7816268,34.0873043 13.5508317,32.5712174 12.8912853,29.2712174 L11.3432907,29.2712174 L11.3432907,27.5770435 L12.7090691,27.5770435 L12.7090691,27.1088696 C12.7090691,26.7075652 12.7090691,26.2837391 12.7548672,25.9048696 L11.3432907,25.9048696 L11.3432907,24.1882609 L13.0276147,24.1882609 C13.8469219,20.844 16.168337,19.1493913 19.3315146,19.1493913 C20.2189866,19.1493913 20.9243311,19.2161739 21.8799677,19.4171304 L21.8799677,21.757913 C20.7645701,21.5574783 20.1731884,21.4682609 19.2632612,21.4682609 C17.5331391,21.4682609 16.3952863,22.3821739 15.8946133,24.1883478 L20.0367704,24.1883478 L20.0367704,25.9049565 L15.5993218,25.9049565 C15.575979,26.2170435 15.575979,26.5292174 15.575979,26.8413043 C15.575979,27.1090435 15.575979,27.3543478 15.5993218,27.5772174 L20.0367704,27.5772174 L20.0367704,29.2713913 L15.872158,29.2713913 C16.3952863,31.0995652 17.6246466,31.8578261 19.1259556,31.8578261 C20.195555,31.8578261 20.8102795,31.7686087 21.9940192,31.5233043 L21.9940192,33.7303478 L21.9940192,33.7303478 Z" id="wallet" class="tab__icon__image" fill-rule="nonzero"></path>
</svg>
