<?xml version="1.0" encoding="UTF-8"?>
<svg width="51px" height="40px" viewBox="0 0 51 40" version="1.1" xmlns="http://www.w3.org/2000/svg">
    <path d="M25.3042542,4.61852778e-14 C26.3067871,4.61852778e-14 27.234614,0.477021277 27.7437666,1.25497872 L27.7437666,1.25497872 L50.6060491,36.1485957 C51.1235128,36.9381277 51.131824,37.9163404 50.6272992,38.7125957 C50.1227744,39.5088511 49.183803,40 48.1665367,40 L48.1665367,40 L2.83297372,40 C1.81939081,40 0.883158289,39.5120851 0.377783507,38.7208511 C-0.127591276,37.929617 -0.125796822,36.9547234 0.382411308,36.1651915 L0.382411308,36.1651915 L22.8536918,1.27157447 C23.3590666,0.487829787 24.286988,0.00331914894 25.2932042,4.61852778e-14 L25.2932042,4.61852778e-14 Z M25.3255043,7.60723404 L7.75355421,34.893617 L43.2035505,34.893617 L25.3255043,7.60723404 Z M25.4853052,28.098383 C26.8894178,28.098383 27.6918219,28.8468085 27.6919163,30.2155745 C27.6919163,31.3773617 26.9464626,32.2806809 25.5142997,32.2806809 C24.1101871,32.2806809 23.3076886,31.5582979 23.3076886,30.2155745 C23.3076886,29.0277447 24.0522923,28.098383 25.4853052,28.098383 Z M27.5634712,14.7157447 L27.2323473,22.9978723 L27.2323473,27.1525957 L23.7367519,27.2340426 L23.7367519,15.0149787 L27.5634712,14.7157447 Z" id="warning" class="tab__icon__image" fill-rule="nonzero"></path>
</svg>
