<?xml version="1.0" encoding="utf-8"?>
<!-- Generator: Adobe Illustrator 13.0.0, SVG Export Plug-In  -->
<!DOCTYPE svg PUBLIC "-//W3C//DTD SVG 1.1 Tiny//EN" "http://www.w3.org/Graphics/SVG/1.1/DTD/svg11-tiny.dtd" [
	<!ENTITY ns_flows "http://ns.adobe.com/Flows/1.0/">
]>
<svg version="1.1" baseProfile="tiny"
	 xmlns="http://www.w3.org/2000/svg" xmlns:xlink="http://www.w3.org/1999/xlink" xmlns:a="http://ns.adobe.com/AdobeSVGViewerExtensions/3.0/"
	 x="0px" y="0px" width="64px" height="64px" viewBox="0 0 64 64" xml:space="preserve">
<defs>
</defs>
<rect fill="#007BC7" width="64" height="64"/>
<rect x="14" fill="#154273" width="36" height="54"/>
<path fill="#FFFFFF" d="M32.648,37.699h-0.627v-1.735h0.627V37.699z M35.478,30.039h-0.626v-1.736h0.626V30.039z M23.871,27.044
	c-0.05,0-0.375,0-0.375,0.064c0,0.065,0.152,0.036,0.375,0.072c0.504,0.086,0.699,0.338,1.051,0.338
	c0.316,0,0.648-0.216,0.519-0.678c-0.022-0.078-0.066-0.057-0.081-0.007c-0.049,0.21-0.302,0.325-0.568,0.325
	C24.461,27.159,24.396,27.044,23.871,27.044z M20.422,28.779c0.058,0.079,0.648,0.842-0.259,1.137
	c-0.044,0.014-0.051,0.05,0.007,0.079c0.669,0.281,0.993-0.237,0.993-0.237c0.338,0.777-0.18,1.203-0.18,1.203
	c0.072,0.136,0.396,0.374,0.879,0.481c0.186-0.101,0.446-0.288,0.554-0.576c0,0,0.13,0.338,0.015,0.663
	c1.368,0.123,1.85-0.973,2.909-0.77c0.029,0.007,0.044-0.015,0.044-0.044c0-0.676-0.411-1.908-1.721-2.16
	c-1.304-0.252-0.951-0.785-0.951-0.785c0.546-0.022,0.864,0.215,0.864,0.215c0.101-0.166-0.043-0.338-0.043-0.338
	c0.051-0.065,0.079-0.288,0.079-0.288c-0.619,0-0.778-0.137-0.778-0.137c-0.092-0.367,0.159-0.886,1.08-0.331
	c0.23-0.202,0.209-0.519,0.209-0.519c0.072-0.036,0.116-0.145,0.116-0.188c0-0.151-0.735-0.562-0.923-0.612
	c-0.043-0.223-0.331-0.541-1.195-0.425c-0.41,0.051-0.705-0.057-0.568-0.295c0.021-0.042-0.051-0.049-0.087-0.007
	c-0.093,0.095-0.222,0.36,0.129,0.541c0.396,0.201,0.418,0.598,0.425,0.655c0.007,0.087-0.094,0.094-0.115,0.007
	c-0.18-0.668-1.101-0.813-1.642-0.46c0.029,0.36,0.417,0.598,0.626,0.598c0.122,0,0.288-0.122,0.288-0.287
	c0-0.08,0.042-0.072,0.065-0.008c0.085,0.238-0.268,0.735-0.785,0.433c-0.533,0.533-0.318,1.195-0.267,1.433
	c0.094,0.433-0.115,0.857-0.511,0.663c-0.023-0.007-0.044-0.014-0.044,0.028C19.645,28.707,19.998,29.016,20.422,28.779z
	 M23.36,26.093c-0.252,0.281-0.656,0.216-0.756-0.244C23.122,25.819,23.339,25.87,23.36,26.093z M39.251,27.159
	c-0.268,0-0.52-0.115-0.569-0.325c-0.015-0.05-0.058-0.071-0.079,0.007c-0.13,0.461,0.202,0.678,0.519,0.678
	c0.353,0,0.547-0.252,1.051-0.338c0.224-0.036,0.375,0,0.375-0.072c0-0.064-0.324-0.064-0.375-0.064
	C39.653,27.044,39.581,27.159,39.251,27.159z M44.406,28.433c0-0.043-0.022-0.036-0.044-0.028c-0.396,0.194-0.604-0.223-0.511-0.664
	c0.05-0.244,0.266-0.9-0.267-1.432c-0.526,0.302-0.878-0.195-0.785-0.432c0.021-0.065,0.065-0.072,0.065,0.007
	c0,0.165,0.165,0.288,0.288,0.288c0.207,0,0.598-0.238,0.626-0.598c-0.541-0.353-1.462-0.208-1.642,0.461
	c-0.021,0.086-0.122,0.079-0.115-0.007c0-0.057,0.028-0.454,0.424-0.655c0.36-0.18,0.231-0.446,0.131-0.541
	c-0.035-0.036-0.116-0.028-0.087,0.007c0.137,0.238-0.158,0.346-0.562,0.295c-0.863-0.115-1.145,0.209-1.195,0.426
	c-0.187,0.05-0.922,0.46-0.922,0.611c0,0.043,0.044,0.158,0.115,0.187c0,0-0.014,0.31,0.209,0.52
	c0.915-0.555,1.174-0.037,1.08,0.331c0,0-0.165,0.13-0.784,0.137c0,0,0.028,0.223,0.079,0.288c0,0-0.145,0.18-0.043,0.338
	c0,0,0.316-0.238,0.863-0.216c0,0,0.353,0.533-0.95,0.786c-1.303,0.251-1.721,1.483-1.721,2.16c0,0.035,0.015,0.05,0.043,0.043
	c1.058-0.195,1.541,0.9,2.908,0.77c-0.122-0.324,0.016-0.663,0.016-0.663c0.107,0.288,0.366,0.482,0.555,0.576
	c0.489-0.108,0.806-0.338,0.877-0.481c0,0-0.517-0.425-0.18-1.202c0,0,0.324,0.517,0.994,0.237c0.058-0.03,0.043-0.065,0.007-0.08
	c-0.907-0.294-0.316-1.058-0.259-1.137C44.046,29.016,44.406,28.707,44.406,28.433z M41.438,25.849
	c-0.1,0.46-0.504,0.525-0.755,0.244C40.705,25.87,40.928,25.819,41.438,25.849z M31.784,18.151c0,0.115,0.05,0.216,0.087,0.273
	c0.079,0.116,0.064,0.18,0.028,0.217c-0.035,0.035-0.1,0.05-0.215-0.029c-0.058-0.043-0.159-0.086-0.274-0.086
	c-0.194,0-0.295,0.129-0.295,0.238c0,0.107,0.101,0.237,0.295,0.237c0.115,0,0.216-0.05,0.274-0.087
	c0.115-0.079,0.18-0.064,0.215-0.028c0.036,0.035-0.014,0.432-0.065,0.748c-0.324,0.073-0.482,0.333-0.482,0.482
	c0,0.396,0.418,0.62,0.669,0.757c0.245-0.129,0.67-0.36,0.67-0.757c0-0.15-0.158-0.417-0.482-0.482
	c-0.043-0.309-0.101-0.713-0.065-0.748c0.036-0.036,0.1-0.05,0.216,0.028c0.057,0.043,0.158,0.087,0.273,0.087
	c0.194,0,0.295-0.13,0.295-0.237c0-0.108-0.101-0.238-0.295-0.238c-0.115,0-0.216,0.05-0.273,0.086
	c-0.116,0.08-0.18,0.064-0.216,0.029c-0.036-0.037-0.051-0.101,0.029-0.217c0.043-0.057,0.085-0.158,0.085-0.273
	c0-0.195-0.129-0.295-0.237-0.295C31.914,17.856,31.784,17.957,31.784,18.151z M32.021,21.074c-0.265,0-0.482,0.216-0.482,0.482
	c0,0.267,0.217,0.482,0.482,0.482c0.267,0,0.483-0.215,0.483-0.482C32.504,21.291,32.288,21.074,32.021,21.074z M32.021,25.689
	c1.923,0,3.003,0.367,3.003,0.367c0.007-0.971,0.007-1.512,0.562-1.432c-0.303-0.814,1.007-1.138,1.007-2.197
	c0-0.699-0.496-0.777-0.64-0.777c-0.433,0-0.367,0.28-0.734,0.28c-0.043,0-0.094-0.015-0.094,0.022c0,0.123,0.101,0.331,0.273,0.331
	c0.23,0,0.23-0.23,0.402-0.23c0.072,0,0.181,0.058,0.181,0.295c0,0.454-0.295,0.95-0.647,1.34c-0.08-0.108-0.188-0.18-0.324-0.18
	c-0.209,0-0.389,0.216-0.389,0.482c0,0.1,0.014,0.173,0.05,0.251c-0.115,0.065-0.223,0.102-0.295,0.102
	c-0.158,0-0.396-0.065-0.396-0.411c0-0.77,1.029-1.447,1.029-2.426c0-0.467-0.31-0.929-0.966-0.929
	c-0.697,0-0.568,0.633-1.173,0.633c-0.029,0-0.05,0.008-0.05,0.036c0,0.043,0.108,0.397,0.418,0.397c0.33,0,0.425-0.577,0.727-0.577
	c0.107,0,0.272,0.064,0.272,0.455c0,0.302-0.15,0.798-0.366,1.267c-0.079-0.079-0.188-0.137-0.303-0.137
	c-0.259,0-0.446,0.252-0.446,0.547c0,0.187,0.072,0.375,0.201,0.49c-0.15,0.194-0.309,0.353-0.518,0.353
	c-0.418,0-0.598-0.238-0.598-0.498c0-0.28,0.511-0.381,0.511-0.813c0-0.295-0.194-0.461-0.374-0.461
	c-0.202,0-0.302,0.129-0.325,0.129c-0.021,0-0.122-0.129-0.323-0.129c-0.188,0-0.375,0.166-0.375,0.461
	c0,0.432,0.511,0.541,0.511,0.813c0,0.259-0.188,0.498-0.598,0.498c-0.208,0-0.367-0.159-0.518-0.353
	c0.13-0.123,0.201-0.303,0.201-0.49c0-0.303-0.188-0.547-0.447-0.547c-0.122,0-0.222,0.058-0.302,0.137
	c-0.215-0.475-0.366-0.965-0.366-1.267c0-0.39,0.165-0.455,0.273-0.455c0.295,0,0.389,0.577,0.727,0.577
	c0.31,0,0.417-0.354,0.417-0.397c0-0.021-0.021-0.036-0.05-0.036c-0.604,0-0.475-0.633-1.173-0.633
	c-0.647,0-0.965,0.461-0.965,0.929c0,0.979,1.03,1.656,1.03,2.426c0,0.346-0.238,0.411-0.396,0.411c-0.079,0-0.18-0.037-0.295-0.102
	c0.036-0.086,0.05-0.151,0.05-0.251c0-0.267-0.18-0.482-0.389-0.482c-0.129,0-0.238,0.072-0.317,0.18
	c-0.353-0.39-0.647-0.886-0.647-1.34c0-0.23,0.108-0.295,0.18-0.295c0.165,0,0.172,0.23,0.402,0.23c0.173,0,0.274-0.208,0.274-0.331
	c0-0.037-0.05-0.022-0.094-0.022c-0.367,0-0.302-0.28-0.734-0.28c-0.144,0-0.642,0.078-0.642,0.777c0,1.065,1.312,1.383,1.009,2.197
	c0.554-0.08,0.547,0.46,0.562,1.432C29.019,26.056,30.099,25.689,32.021,25.689z M28.501,27.122c-0.525,0.115-0.9,0.224-1.066,0.273
	c0.007-0.229,0.094-0.446,0.302-0.489c0.029-0.008,0.036-0.043,0.007-0.058c-0.467-0.31-0.712,0.281-0.72,0.303
	c-0.166-0.015-0.417,0.036-0.417,0.259c0,0.669-1.526,1.036-1.879,1.094c0.625,0.237,0.886,1.029,0.886,1.029
	c0.454-0.453,0.979-0.849,1.102-0.849c0.122,0,0.166,0.151,0.173,0.237c0,0.029,0.028,0.037,0.051,0.014
	c0.236-0.352,0.122-0.431,0.099-0.54c-0.014-0.079,0.008-0.388,0.354-0.353v4.457l-0.18,0.035c-0.079,0.015-0.734-0.54-1.476-1.057
	c-0.749-0.519-1.145-0.209-1.995,0.251c-1.115,0.604-2.238,0.058-2.238,0.058c-0.958,0.684-1.289,2.671-1.289,2.671
	c-0.195,0.08-0.512,0.166-0.807,0.166c-0.734,0-0.863-0.446-0.863-0.706c0-1.13,1.417-1.612,1.417-2.729
	c0-0.274-0.123-1.368-1.482-1.368c-0.173,0-1.21,0-1.218,0c-0.51,0-0.633-0.367-0.705-0.504c-0.029-0.057-0.079-0.022-0.057,0.021
	c0.035,0.094-0.057,0.238-0.057,0.519c0,0.453,0.266,0.727,0.763,0.727c0.222,0,0.439-0.065,0.503-0.108
	c0.043-0.029,0.072,0.014,0.051,0.043c-0.217,0.252-0.231,0.728-0.145,0.835c0.022,0.029,0.051,0.022,0.051,0
	c0.122-0.475,0.569-0.929,1.174-0.929c0.741,0,0.734,0.627,0.734,0.778c0,0.907-1.592,1.57-1.592,2.823
	c0,1.268,1.339,1.534,2.109,1.339c-0.042,1.268-1.498,1.7-1.54,0.793c0-0.044-0.037-0.052-0.058,0.007
	c-0.18,0.445-0.108,0.842,0.453,0.965c0.036,0.006,0.022,0.027-0.015,0.058c-0.561,0.353-0.258,1.749-0.23,2.16
	c0.043,0.591-0.547,0.518-0.597,0.503c-0.022-0.008-0.051,0-0.008,0.051c0.417,0.512,0.936,0.044,0.936,0.044
	c0.388,0.122,0.151,0.452-0.115,0.626c-0.043,0.029-0.036,0.057,0.007,0.057c0.058,0.008,0.663,0.059,0.771-0.424
	c0.266,0.316,0.663,0.201,0.741,0.158c0.115-0.058,0.685-0.267,0.735,0.367c0,0.043,0.029,0.014,0.05-0.008
	c0.425-0.539-0.028-0.871-0.288-0.906c0.022-0.029,0.359-0.317,0.67,0.079c0.021,0.028,0.043,0.036,0.043-0.022
	c0.036-0.684-0.519-0.742-0.878-0.446c-0.015-0.071-0.137-0.454,0.402-0.438c0.015,0,0.036-0.021,0.015-0.044
	c-0.417-0.446-0.764-0.043-0.85,0.058c-0.187,0.224-0.655,0.129-0.699,0.129c0.144-2.367,2.232-1.525,2.521-2.678
	c0.014-0.058,0.043-0.035,0.043-0.015c0.079,0.281,0.785,0.317,0.914-0.229c0.007-0.035,0-0.058-0.022-0.035
	c-0.605,0.604-1.965-1.283-0.107-2.816c1.584-1.304,3.002-0.576,3.542-0.15c0.028,0.186-0.087,0.252-0.158,0.273
	c-0.028,0.007-0.036,0.029,0.007,0.05c0.151,0.058,0.359,0.036,0.46-0.101c0.338,0.238,0.051,0.54-0.086,0.619
	c-0.036,0.021-0.022,0.043,0.008,0.051c0.309,0.057,0.567-0.26,0.582-0.446l0.051,0.028v1.346c0,1.916,2.21,2.182,4.637,3.802
	c2.427-1.627,4.63-1.886,4.63-3.802v-1.346l0.05-0.028c0.015,0.179,0.267,0.503,0.583,0.446c0.029-0.008,0.043-0.029,0.007-0.051
	c-0.136-0.086-0.432-0.381-0.086-0.619c0.101,0.144,0.31,0.158,0.461,0.101c0.043-0.015,0.035-0.043,0.008-0.05
	c-0.072-0.021-0.188-0.088-0.159-0.273c0.54-0.433,1.959-1.16,3.543,0.15c1.856,1.533,0.495,3.414-0.109,2.816
	c-0.028-0.029-0.028,0-0.021,0.035c0.131,0.555,0.836,0.511,0.914,0.229c0.008-0.021,0.037-0.043,0.044,0.015
	c0.289,1.152,2.368,0.311,2.521,2.678c-0.043,0.008-0.512,0.095-0.699-0.129c-0.079-0.093-0.425-0.504-0.849-0.058
	c-0.029,0.028,0,0.044,0.014,0.044c0.54-0.016,0.426,0.367,0.403,0.438c-0.36-0.296-0.914-0.237-0.878,0.446
	c0,0.051,0.021,0.051,0.042,0.022c0.31-0.396,0.649-0.108,0.67-0.079c-0.251,0.035-0.712,0.367-0.287,0.906
	c0.021,0.021,0.043,0.051,0.05,0.008c0.058-0.634,0.62-0.432,0.735-0.367c0.079,0.043,0.475,0.158,0.741-0.158
	c0.108,0.482,0.713,0.432,0.771,0.424c0.043,0,0.043-0.027,0.007-0.057c-0.26-0.174-0.504-0.504-0.115-0.626
	c0,0,0.519,0.468,0.936-0.044c0.036-0.044,0.016-0.059-0.007-0.051c-0.051,0.015-0.641,0.088-0.598-0.503
	c0.029-0.411,0.331-1.808-0.23-2.16c-0.036-0.022-0.05-0.044-0.014-0.058c0.562-0.123,0.633-0.52,0.453-0.965
	c-0.021-0.059-0.058-0.044-0.058-0.007c-0.044,0.907-1.49,0.475-1.542-0.793c0.778,0.202,2.11-0.071,2.11-1.339
	c0-1.246-1.591-1.916-1.591-2.823c0-0.151-0.007-0.778,0.734-0.778c0.604,0,1.052,0.455,1.174,0.929c0.007,0.022,0.028,0.029,0.05,0
	c0.087-0.114,0.072-0.583-0.144-0.835c-0.021-0.022,0-0.072,0.05-0.043c0.065,0.043,0.281,0.108,0.505,0.108
	c0.497,0,0.763-0.274,0.763-0.727c0-0.281-0.101-0.425-0.058-0.519c0.021-0.043-0.035-0.071-0.058-0.021
	c-0.072,0.145-0.201,0.504-0.706,0.504c-0.007,0-1.044,0-1.216,0c-1.36,0-1.483,1.102-1.483,1.368c0,1.116,1.418,1.598,1.418,2.729
	c0,0.267-0.136,0.706-0.863,0.706c-0.302,0-0.619-0.086-0.808-0.166c0,0-0.323-1.98-1.287-2.671c0,0-1.124,0.547-2.239-0.058
	c-0.852-0.461-1.254-0.77-2.003-0.251c-0.748,0.518-1.396,1.072-1.476,1.057l-0.18-0.035v-4.457
	c0.345-0.036,0.367,0.273,0.354,0.353c-0.022,0.101-0.131,0.188,0.1,0.54c0.022,0.03,0.044,0.015,0.051-0.014
	c0.008-0.086,0.058-0.237,0.173-0.237c0.116,0,0.647,0.396,1.102,0.849c0,0,0.259-0.785,0.886-1.029
	c-0.353-0.058-1.88-0.425-1.88-1.094c0-0.224-0.252-0.274-0.417-0.259c-0.007-0.022-0.26-0.613-0.72-0.303
	c-0.022,0.015-0.022,0.05,0.007,0.058c0.208,0.049,0.296,0.259,0.303,0.489c-0.447-0.137-2.34-0.669-4.587-0.669
	c-1.094,0-2.094,0.129-2.894,0.273v1.542h-0.626V27.122L28.501,27.122 M24.354,42.949c-0.165-0.065-0.273-0.174-0.273-0.398v-0.957
	c-0.273-0.093-1.022-0.381-2.527-0.381c-1.246,0-1.635,0.28-1.657,0.381l-0.331,1.822c0,0,0.504-0.461,2.311-0.346
	c2.174,0.137,4.428,1.426,4.428,0.051v-0.807C24.606,42.321,24.354,42.869,24.354,42.949z M37.739,42.321v0.807
	c0,1.368,2.253,0.086,4.427-0.05c1.808-0.115,2.312,0.346,2.312,0.346l-0.331-1.83c-0.015-0.101-0.41-0.381-1.656-0.381
	c-1.497,0-2.246,0.288-2.526,0.381v0.957c0,0.218-0.108,0.324-0.274,0.398C39.696,42.869,39.444,42.321,37.739,42.321z
	 M32.021,41.493c3.507,0,7.064,0.181,7.525,0.714c0.035,0.042,0.05,0,0.05-0.036v-1.858c0-0.539-3.672-0.856-7.582-0.856
	s-7.582,0.317-7.582,0.856v1.858c0,0.028,0.014,0.071,0.051,0.036C24.966,41.682,28.522,41.493,32.021,41.493z M28.896,32.739
	l-0.353-0.095l-0.029,0.044l-0.411-0.18c0,0,0.303,0,0.368,0c0.036,0,0.036-0.022,0.021-0.036c-0.165-0.166-0.316-0.31-0.316-0.31
	s0.165,0.064,0.403,0.151c0.029,0.007,0.036-0.007,0.021-0.029c-0.115-0.166-0.273-0.396-0.273-0.396s0.33,0.223,0.396,0.267
	c0.022,0.014,0.036,0,0.029-0.022c-0.087-0.216-0.188-0.468-0.188-0.468l0.36,0.346c0.014,0.014,0.035,0.007,0.028-0.015
	c-0.035-0.165-0.1-0.468-0.1-0.468l0.266,0.389c0.014,0.021,0.036,0.014,0.036-0.007c0-0.079,0.008-0.425,0.008-0.425
	s0.115,0.258,0.166,0.389c0.015,0.029,0.029,0.029,0.043-0.007c0.014-0.043,0.137-0.331,0.137-0.331l0.014,0.446l-0.057,0.014
	l-0.073,0.533c0.526-0.122,1.188-1.029,1.693-1.029c0.604,0,0.821,0.706,1.93,0.346c0.28,0.417,0.381,0.777,0.489,1.273
	c0.432,0.404,1.029,0.268,1.029-0.158c0-0.575-0.626-0.683-0.626-1.288c0-0.267,0.188-0.656,0.698-0.656
	c0.273,0,0.669,0.115,0.9,0.115c0.273,0,0.33-0.193,0.359-0.281c0.022-0.057,0.102-0.042,0.094,0.007
	c-0.007,0.058,0.028,0.137,0.028,0.267c0,0.381-0.555,0.433-0.618,0.381c-0.028-0.021-0.052,0.007-0.028,0.029
	c0.085,0.065,0.064,0.295-0.037,0.439c-0.014,0.014-0.029,0.014-0.029,0c-0.057-0.274-0.381-0.612-0.661-0.612
	c-0.102,0-0.31,0.057-0.31,0.302c0,0.338,0.684,0.655,0.684,1.361c0,0.734-0.727,0.914-1.462,0.727
	c0.022,0.697,1.065,1.109,1.088,0.612c0-0.037,0.021-0.015,0.027,0c0.151,0.216,0.087,0.374-0.114,0.46
	c0.18,0.08,0.217,0.447,0.266,0.67c0.08,0.33,0.426,0.144,0.446,0.137c0.021-0.014,0.029,0,0.015,0.021
	c-0.129,0.339-0.481,0.209-0.481,0.209c-0.181,0.13,0.036,0.244,0.201,0.296c0.021,0.007,0.021,0.021,0.008,0.035
	c-0.122,0.043-0.383,0.13-0.512-0.093c-0.094,0.23-0.288,0.223-0.36,0.223c-0.137,0-0.224,0.137-0.194,0.324
	c0,0.014-0.007,0.021-0.021,0.014c-0.316-0.209-0.138-0.461-0.008-0.525c-0.021-0.015-0.245-0.107-0.337,0.151
	c-0.007,0.021-0.022,0.021-0.03,0c-0.136-0.374,0.166-0.482,0.383-0.39c-0.016-0.05-0.13-0.238-0.418-0.172
	c-0.015,0.008-0.022,0-0.015-0.021c0.05-0.115,0.188-0.281,0.453-0.115c0.137,0.086,0.367-0.036,0.39-0.051
	c-0.468-0.929-1.368-0.15-1.578-0.877c-0.007-0.016-0.021-0.031-0.035,0.014c-0.05,0.15-0.447,0.166-0.519-0.137
	c-0.007-0.022,0-0.029,0.021-0.015c0.057,0.058,0.18,0.106,0.346-0.123c0.109-0.157,0.123-0.368,0.123-0.504
	c0-0.562-0.562-1.512-1.441-1.512c-0.554,0-1.151,0.215-1.598,0.54l0.41,0.093c-0.035,0.417-0.438,0.663-0.806,0.555l0.065-0.475
	c-0.065,0.021-0.223,0.079-0.309,0.201c-0.007,0.007-0.022,0.007-0.022-0.007c-0.072-0.274,0.151-0.411,0.216-0.439
	c0.007-0.007,0.007-0.007-0.007-0.007c-0.202-0.008-0.309,0.137-0.346,0.187c-0.007,0.008-0.014,0.008-0.014,0
	C28.838,32.976,28.803,32.838,28.896,32.739z M30.128,35.964c-0.158,0.195-0.295,0.007-0.503,0.007c-0.195,0-0.231,0.166-0.231,0.23
	c0,0.016-0.007,0.016-0.014,0.008c-0.223-0.303,0.029-0.467,0.172-0.49c-0.021-0.021-0.237-0.165-0.374,0.037
	c-0.007,0.014-0.022,0.007-0.022-0.008c-0.007-0.375,0.289-0.404,0.491-0.238c0.035-0.144-0.058-0.236-0.217-0.244
	c-0.021,0-0.021-0.015-0.014-0.021c0.065-0.072,0.129-0.1,0.194-0.1c0.209,0,0.237,0.265,0.375,0.265
	c0.202,0,0.498-0.272,0.519-0.302c-0.007-0.015-0.201-0.547-0.166-0.863c0-0.016-0.007-0.016-0.014-0.008
	c-0.101,0.057-0.346,0.05-0.346-0.252c0-0.021,0.007-0.029,0.022-0.008c0.108,0.151,0.288-0.021,0.375-0.123
	c0.093-0.107,0.612-0.856,1.295-0.856c0.151,0,0.346,0.086,0.505,0.194c-0.238,0.289,0,0.562,0.173,0.525
	c0.021-0.006,0.021,0.015,0.007,0.021c-0.907,0.34-1.312,0.476-1.312,1.24c0,0.395,0.137,0.618,0.367,0.561
	c0.015-0.008,0.022,0,0.007,0.015c-0.086,0.101-0.18,0.137-0.258,0.137c-0.188,0-0.224-0.101-0.325-0.101
	c-0.101,0-0.439,0.201-0.439,0.366c0,0.065,0.043,0.151,0.159,0.224c0.007,0.008,0,0.015,0,0.015
	C30.451,36.194,30.186,36.217,30.128,35.964z M32.512,28.584c-0.281-0.014-0.468,0.043-0.454,0.137
	C32.194,28.865,32.375,28.851,32.512,28.584z M31.467,29.283c0.201-0.051,0.417-0.029,0.447-0.021
	c0.028,0.007,0.028,0.057-0.007,0.064c-0.418,0.05-0.439,0.245-0.706,0.245c-0.173,0-0.368-0.18-0.295-0.439
	c0.007-0.036,0.035-0.036,0.043,0C30.978,29.247,31.144,29.369,31.467,29.283z M26.046,38.541c0.272,0.354,0.54,0.023,0.907,0.023
	c0.18,0,0.396,0.057,0.432,0.417c0,0.021,0.014,0.021,0.036,0c0.396-0.54-0.057-0.843-0.316-0.886
	c0.056-0.051,0.439-0.289,0.691,0.064c0.014,0.021,0.044,0.014,0.044-0.014c0-0.686-0.513-0.734-0.886-0.439
	c-0.072-0.268,0.129-0.439,0.388-0.439c0.03,0,0.044-0.021,0.03-0.036c-0.461-0.491-0.8,0.13-0.879,0.222
	c-0.18,0.246-0.835-0.215-1.101-0.488c0,0,0.576-0.604,0.576-1.159c0-0.036-0.008-0.079-0.008-0.101
	c0-0.015,0.008-0.021,0.023-0.015c0.058,0.036,0.136,0.058,0.215,0.058c0.13,0,0.382-0.043,0.382-0.512
	c0-0.035-0.015-0.035-0.03-0.014c-0.071,0.101-0.143,0.121-0.2,0.121c-0.468,0-1.44-1.555-2.593-1.555
	c-0.302,0-0.871,0.217-1.151,0.525c0.137,0.08,0.165,0.253,0.151,0.375c-0.022,0.194-0.18,0.295-0.339,0.338
	c-0.028,0.008-0.028,0.029,0,0.043c0.583,0.225,1.635,0.62,1.879,0.828c0.281,0.246,0.231,0.706,0.066,1.348
	c-0.159,0.611-0.498,0.533-0.627,0.51c-0.021,0-0.021,0.008-0.014,0.023c0.151,0.188,0.332,0.251,0.49,0.251
	c0.302,0,0.417-0.187,0.569-0.187c0.258,0,0.813,0.373,0.813,0.662c0,0.158-0.122,0.309-0.287,0.41
	c-0.008,0.008-0.008,0.021,0.007,0.021C25.434,38.959,25.944,39.002,26.046,38.541z M38.738,38.938c0.016,0,0.023-0.014,0.008-0.021
	c-0.158-0.107-0.287-0.252-0.287-0.41c0-0.289,0.547-0.662,0.813-0.662c0.158,0,0.267,0.187,0.569,0.187
	c0.157,0,0.337-0.063,0.488-0.251c0.015-0.016,0.007-0.03-0.014-0.023c-0.123,0.023-0.468,0.102-0.627-0.51
	c-0.165-0.642-0.223-1.102,0.064-1.348c0.238-0.208,1.297-0.604,1.88-0.828c0.029-0.014,0.029-0.035,0-0.043
	c-0.158-0.043-0.317-0.144-0.339-0.338c-0.014-0.122,0.015-0.288,0.151-0.375c-0.287-0.309-0.856-0.525-1.159-0.525
	c-1.152,0-2.123,1.555-2.592,1.555c-0.058,0-0.137-0.021-0.202-0.121c-0.014-0.021-0.028-0.021-0.028,0.014
	c0,0.469,0.252,0.512,0.382,0.512c0.072,0,0.158-0.021,0.216-0.058c0.015-0.007,0.021,0,0.021,0.015
	c0,0.021-0.007,0.064-0.007,0.101c0,0.555,0.576,1.159,0.576,1.159c-0.26,0.274-0.914,0.727-1.103,0.488
	c-0.079-0.1-0.417-0.713-0.878-0.222c-0.014,0.022-0.007,0.036,0.028,0.036c0.26,0,0.462,0.172,0.39,0.439
	c-0.375-0.295-0.886-0.246-0.886,0.439c0,0.027,0.028,0.035,0.044,0.014c0.244-0.354,0.633-0.115,0.683-0.064
	c-0.259,0.035-0.705,0.346-0.316,0.886c0.014,0.021,0.029,0.021,0.036,0c0.043-0.354,0.259-0.417,0.433-0.417
	c0.36,0,0.625,0.33,0.906-0.022C38.105,39.002,38.616,38.959,38.738,38.938z M29.444,29.958c-0.036,0.051-0.158,0-0.202-0.021
	c-0.007-0.007-0.014,0-0.007,0.007c0.029,0.065,0.144,0.26,0.316,0.26c0.08,0,0.195-0.043,0.224-0.101c0,0,0.676,0.223,1.008,0.309
	c-0.13,0.173-0.209,0.382-0.23,0.605c-0.267-0.166-1.346-0.742-1.346-0.742l-0.332,0.46c-0.058,0.073-0.324-0.122-0.266-0.194
	l0.252-0.353c-0.087-0.086-0.288-0.036-0.346-0.014c-0.007,0-0.014,0-0.007-0.014c0.036-0.073,0.158-0.281,0.475-0.188
	c0-0.194-0.288-0.129-0.367-0.107c-0.007,0-0.015,0-0.007-0.007c0.079-0.087,0.316-0.274,0.576-0.115l0.115-0.159l-0.23-0.245
	l0.144-0.201l0.165,0.214l1.246-1.705c0.029-0.044,0.281-0.116,0.367-0.137c0.007,0.093,0.022,0.352-0.007,0.396l-1.224,1.721
	l0.259,0.086l-0.145,0.202l-0.302-0.144L29.444,29.958z M33.814,29.679c0,0.158,0.094,0.389,0.302,0.316
	c0.008-0.007,0.023,0,0.015,0.007c-0.028,0.173-0.345,0.331-0.482,0.129c-0.13,0.268-0.093,0.52,0.173,0.663
	c0.015,0.007,0.015,0.029,0,0.043c-0.165,0.116-0.417,0.094-0.533-0.136c-0.222,0.165-0.194,0.525-0.057,0.647
	c0,0-0.62,0.368-1.181,0.107c-0.375-0.179-0.677-0.41-1.16-0.367c0.065-0.677,0.404-0.85,1.023-0.951
	c0.497-0.078,0.554-0.31,0.489-0.482c-0.166-0.042-0.476,0.109-0.476,0.109c-0.057-0.094,0.021-0.188,0.021-0.188
	c-0.028-0.037-0.042-0.159-0.042-0.159c0.345,0,0.41-0.079,0.41-0.079c0.065-0.36-0.302-0.396-0.583-0.201
	c-0.129-0.116-0.108-0.267-0.108-0.267c-0.036-0.021-0.064-0.079-0.064-0.108c0-0.086,0.41-0.317,0.518-0.346
	c0.029-0.123,0.172-0.288,0.612-0.245c0.05-0.114-0.035-0.54-0.086-0.648c-0.014-0.036,0.007-0.05,0.044-0.029
	c0.15,0.094,0.303,0.455,0.41,0.461c0,0,0.49-0.259,0.511-0.245c0.021,0.014,0.095,0.562,0.095,0.562
	c0.063,0.079,0.445,0,0.611,0.072c0.043,0.022,0.043,0.05,0,0.058c-0.122,0.021-0.52,0.194-0.584,0.303
	C33.922,29.044,33.814,29.541,33.814,29.679z"/>
</svg>
